<mxfile host="app.diagrams.net" agent="Mozilla/5.0 (Windows NT 10.0; Win64; x64; rv:137.0) Gecko/20100101 Firefox/137.0" version="26.2.7">
  <diagram name="Pagina-1" id="zUYDE4qHQugAt0mT4nSd">
    <mxGraphModel dx="612" dy="386" grid="1" gridSize="10" guides="1" tooltips="1" connect="1" arrows="1" fold="1" page="1" pageScale="1" pageWidth="827" pageHeight="1169" math="0" shadow="0">
      <root>
        <mxCell id="0" />
        <mxCell id="1" parent="0" />
        <mxCell id="kE8zFRRbq13aS-98mcNo-1" value="HOMEPAGE" style="swimlane;whiteSpace=wrap;html=1;" vertex="1" parent="1">
          <mxGeometry x="110" y="70" width="290" height="165" as="geometry">
            <mxRectangle x="70" y="90" width="100" height="30" as="alternateBounds" />
          </mxGeometry>
        </mxCell>
        <mxCell id="kE8zFRRbq13aS-98mcNo-3" value="&lt;div align=&quot;left&quot;&gt;&lt;b&gt;&lt;span style=&quot;mso-ansi-language:IT&quot;&gt;Best Seller&lt;/span&gt;&lt;/b&gt;&lt;span style=&quot;mso-ansi-language:&lt;br/&gt;     IT&quot;&gt;: 3 prodotti più venduti in anteprima.&lt;/span&gt;&lt;b&gt;&lt;span style=&quot;mso-ansi-language:IT&quot;&gt;&lt;br&gt;&lt;/span&gt;&lt;/b&gt;&lt;/div&gt;&lt;div align=&quot;left&quot;&gt;&lt;b&gt;&lt;span style=&quot;mso-ansi-language:IT&quot;&gt;&lt;br&gt;&lt;/span&gt;&lt;/b&gt;&lt;/div&gt;&lt;div align=&quot;left&quot;&gt;&lt;b&gt;&lt;span style=&quot;mso-ansi-language:IT&quot;&gt;Novità&lt;/span&gt;&lt;/b&gt;&lt;span style=&quot;mso-ansi-language:&lt;br/&gt;     IT&quot;&gt;: Lancio di nuovi energy drink.&lt;/span&gt;&lt;/div&gt;&lt;div align=&quot;left&quot;&gt;&lt;b&gt;&lt;span style=&quot;mso-ansi-language:IT&quot;&gt;&lt;br&gt;&lt;/span&gt;&lt;/b&gt;&lt;/div&gt;&lt;div align=&quot;left&quot;&gt;&lt;b&gt;&lt;span style=&quot;mso-ansi-language:IT&quot;&gt;Promozioni&lt;/span&gt;&lt;/b&gt;&lt;span style=&quot;mso-ansi-language:&lt;br/&gt;     IT&quot;&gt;: Banner per sconti stagionali.&lt;/span&gt;&lt;/div&gt;&lt;div align=&quot;left&quot;&gt;&lt;b&gt;&lt;span style=&quot;mso-ansi-language:IT&quot;&gt;&lt;br&gt;&lt;/span&gt;&lt;/b&gt;&lt;/div&gt;&lt;div align=&quot;left&quot;&gt;&lt;b&gt;&lt;span style=&quot;mso-ansi-language:IT&quot;&gt;Brand Story&lt;/span&gt;&lt;/b&gt;&lt;span style=&quot;mso-ansi-language:&lt;br/&gt;     IT&quot;&gt;: Breve sezione testuale/immagine&amp;nbsp;&lt;/span&gt;&lt;/div&gt;&lt;div align=&quot;left&quot;&gt;&lt;span style=&quot;mso-ansi-language:&lt;br/&gt;     IT&quot;&gt;che spiega l’energia di SHIFT &lt;/span&gt;&lt;/div&gt;&lt;br&gt;&lt;div&gt;&lt;br&gt;&lt;/div&gt;" style="text;html=1;align=center;verticalAlign=middle;resizable=0;points=[];autosize=1;strokeColor=none;fillColor=none;" vertex="1" parent="kE8zFRRbq13aS-98mcNo-1">
          <mxGeometry x="10" y="20" width="280" height="160" as="geometry" />
        </mxCell>
        <mxCell id="kE8zFRRbq13aS-98mcNo-5" value="CATALOGO" style="swimlane;whiteSpace=wrap;html=1;" vertex="1" parent="1">
          <mxGeometry x="420" y="70" width="407" height="185" as="geometry">
            <mxRectangle x="70" y="90" width="100" height="30" as="alternateBounds" />
          </mxGeometry>
        </mxCell>
        <mxCell id="kE8zFRRbq13aS-98mcNo-6" value="&lt;div align=&quot;left&quot;&gt;&lt;b&gt;&lt;span style=&quot;mso-ansi-language:IT&quot;&gt;Categorie Principali&lt;/span&gt;&lt;/b&gt;&lt;span style=&quot;mso-ansi-language:IT&quot;&gt;:&lt;/span&gt;&lt;/div&gt;&lt;div align=&quot;left&quot;&gt;&lt;span style=&quot;white-space: pre;&quot;&gt;&#x9;&lt;/span&gt;&lt;span style=&quot;mso-ansi-language:IT&quot;&gt;- Per Gusto (Agrumi, Frutti di Bosco, &lt;/span&gt;&lt;span style=&quot;mso-ansi-language:IT&quot;&gt;Tropicale, etc.).&lt;/span&gt;&lt;/div&gt;&lt;div align=&quot;left&quot;&gt;&lt;span style=&quot;white-space: pre;&quot;&gt;&#x9;- &lt;/span&gt;&lt;span style=&quot;mso-ansi-language:IT&quot;&gt;Per Tipologia (Senza Zucchero, Special&lt;/span&gt;&lt;span style=&quot;mso-ansi-language:IT&quot;&gt; Edition, etc.).&lt;/span&gt;&lt;/div&gt;&lt;div align=&quot;left&quot;&gt;&lt;span style=&quot;white-space: pre;&quot;&gt;&#x9;&lt;/span&gt;&lt;span style=&quot;mso-ansi-language:IT&quot;&gt;- Bundle/Pacchetti (Es. &quot;Mix da 6&quot;, &lt;/span&gt;&lt;span style=&quot;mso-ansi-language:IT&quot;&gt;&quot;Energy + Shaker in omaggio&quot;).&lt;/span&gt;&lt;br&gt;&lt;/div&gt;&lt;div align=&quot;left&quot;&gt;&lt;b&gt;&lt;span style=&quot;mso-ansi-language:IT&quot;&gt;Pagina Prodotto Singolo&lt;/span&gt;&lt;/b&gt;&lt;span style=&quot;mso-ansi-language:IT&quot;&gt;:&lt;/span&gt;&lt;/div&gt;&lt;div align=&quot;left&quot;&gt;&lt;span style=&quot;mso-ansi-language:IT&quot;&gt;&lt;span style=&quot;white-space: pre;&quot;&gt;&#x9;&lt;/span&gt;- Foto ad alta risoluzione (lattina,&lt;br/&gt;      ingredienti).&lt;/span&gt;&lt;/div&gt;&lt;div align=&quot;left&quot;&gt;&lt;span style=&quot;mso-ansi-language:IT&quot;&gt;&lt;span style=&quot;white-space: pre;&quot;&gt;&#x9;&lt;/span&gt;- Descrizione dettagliata (gusto, caffeina per&lt;br/&gt;      porzione).&lt;/span&gt;&lt;/div&gt;&lt;div align=&quot;left&quot;&gt;&lt;span style=&quot;mso-ansi-language:IT&quot;&gt;&lt;span style=&quot;white-space: pre;&quot;&gt;&#x9;&lt;/span&gt;- Scelta pacco (Es. Pacco da 6, 12 …)&lt;/span&gt;&lt;/div&gt;&lt;div align=&quot;left&quot;&gt;&lt;span style=&quot;mso-ansi-language:IT&quot;&gt;&lt;span style=&quot;white-space: pre;&quot;&gt;&#x9;&lt;/span&gt;- Recensioni degli utenti.&lt;/span&gt;&lt;/div&gt;&lt;div align=&quot;left&quot;&gt;&lt;span style=&quot;mso-ansi-language:IT&quot;&gt;&lt;span style=&quot;white-space: pre;&quot;&gt;&#x9;&lt;/span&gt;- &quot;Aggiungi al carrello&quot;.&lt;/span&gt;&lt;/div&gt;&lt;div align=&quot;left&quot;&gt;&lt;span style=&quot;mso-ansi-language:IT&quot;&gt;&lt;span style=&quot;white-space: pre;&quot;&gt;&#x9;&lt;/span&gt;- Quantita&#39; desiderata&lt;/span&gt;&lt;/div&gt;&lt;div align=&quot;left&quot;&gt;&lt;span style=&quot;mso-ansi-language:IT&quot;&gt;&lt;br&gt;&lt;/span&gt;&lt;/div&gt;&lt;br/&gt;&lt;div&gt;&lt;br/&gt;&lt;/div&gt;" style="text;html=1;align=left;verticalAlign=middle;resizable=0;points=[];autosize=1;strokeColor=none;fillColor=none;" vertex="1" parent="kE8zFRRbq13aS-98mcNo-5">
          <mxGeometry x="7" y="-55" width="400" height="240" as="geometry" />
        </mxCell>
      </root>
    </mxGraphModel>
  </diagram>
</mxfile>
